<svg width="1200" height="1200" viewBox="0 0 420 594" fill="none" xmlns="http://www.w3.org/2000/svg">
<path fill-rule="evenodd" clip-rule="evenodd" d="M194.016 78.63C178.411 85.269 165.722 96.779 159.983 109.5C155.171 120.167 151.391 139.443 152.85 145.873C154.021 151.031 153.793 151.802 148.973 159C142.137 169.207 140.577 173.327 143.75 172.794C144.98 172.587 145.44 173.095 145.3 174.5C145.189 175.6 145.503 178.075 145.997 180C146.491 181.925 146.532 185.075 146.088 187C145.291 190.455 144.562 189.986 143.759 185.5C143.465 183.86 143.302 183.981 142.853 186.175C141.968 190.503 144.546 196.177 149.211 200.168C151.569 202.185 153.679 203.654 153.9 203.433C154.121 203.212 154.91 203.812 155.654 204.766C156.903 206.369 156.956 206.349 156.359 204.5C156.004 203.4 154.112 200.813 152.154 198.75C150.196 196.687 149.066 195 149.643 195C151.674 195 159.178 204.325 159.691 207.485C160.071 209.822 159.266 212.507 156.602 217.797C152.655 225.635 152.539 226 154 226C154.55 226 155 225.436 155 224.747C155 224.058 156.575 221.278 158.5 218.571C164.435 210.223 163.309 204.014 153.913 193.263C152.357 191.483 150.611 188.269 150.033 186.122C149.098 182.65 149.309 181.527 151.938 175.968L154.894 169.717L155.616 175.109L156.338 180.5L158.143 176.5C159.135 174.3 159.959 171.532 159.974 170.348C160.004 167.842 164.221 166 169.927 166C171.922 166 174.599 165.268 175.876 164.374C178.184 162.757 178.194 162.767 177.683 166.124C176.346 174.914 175.723 176.173 170.767 180.09C168.046 182.24 165.441 184 164.978 184C164.514 184 163.849 184.9 163.5 186C162.553 188.984 160.25 188.415 159.503 185.011C159.142 183.368 158.37 181.729 157.788 181.369C155.808 180.145 158.056 190.031 161.582 198.05C163.462 202.326 165 206.404 165 207.112C165 207.993 165.325 208.075 166.026 207.374C166.728 206.672 166.425 204.33 165.067 199.967C163.364 194.496 163.065 191.586 164.36 193.083C168.876 198.305 171.685 203.195 171.307 205.175C171.004 206.757 171.613 208.192 173.179 209.589C175.495 211.654 186 215 190.169 215C195.246 215 203.831 211.699 207.598 208.299C209.744 206.362 213.863 202.973 216.75 200.768C219.637 198.563 222 196.455 222 196.083C222 195.711 223.238 195.436 224.75 195.471C227.112 195.525 227.473 195.92 227.312 198.267C227.208 199.77 227.331 201 227.584 201C227.837 201 230.06 199.143 232.522 196.873C236.844 192.889 237 192.832 237 195.223C237 200.505 227.088 210.768 215.215 217.778C201.609 225.812 196.188 228.173 190.074 228.727C185.306 229.159 183.458 228.88 180.809 227.326C175.055 223.952 174.335 223.896 174.735 226.854C174.932 228.309 174.231 231.075 173.177 233C171.513 236.041 170.839 236.456 168.041 236.165C166.27 235.981 162.276 234.955 159.166 233.885C153.932 232.084 153.643 232.072 155.286 233.72C156.262 234.699 159.761 236.405 163.06 237.512L169.059 239.523L160.866 250.012C151.111 262.499 138.552 281.526 135.461 288.502C134.242 291.252 132.728 295.977 132.096 299.002C130.464 306.811 129.416 308.187 127.933 304.466C126.984 302.084 127.083 299.827 128.44 293C129.369 288.325 130.875 283.375 131.787 282C132.699 280.625 133.345 279.163 133.222 278.75C133.1 278.337 133.45 278 134 278C134.55 278 135 277.523 135 276.941C135 276.356 134.441 276.221 133.75 276.641C133.063 277.058 133.783 275.705 135.351 273.634C138.745 269.152 138.244 267.978 134.174 270.876C127.473 275.648 125.236 279.435 122.838 290.067C120.802 299.094 120.463 299.866 119.748 297.106C118.735 293.199 121.206 283.217 124.463 278.059C127.414 273.383 134.974 266.656 141.5 262.898C144.895 260.943 145.842 260.016 144.45 260.009C143.323 260.004 141.874 260.526 141.23 261.17C140.338 262.062 139.845 261.766 139.15 259.92C138.245 257.513 138.23 257.52 136.536 261.038C135.598 262.985 133.213 265.685 131.235 267.038C129.257 268.392 126.314 270.85 124.694 272.5L121.75 275.5L124.375 271.906C125.819 269.929 127 267.829 127 267.239C127 266.649 127.563 265.966 128.25 265.72C128.938 265.475 129.24 264.989 128.922 264.642C128.071 263.712 117.626 274.213 113.908 279.736C109.233 286.679 106.978 288.951 102.5 291.232C100.3 292.352 98.275 293.555 98 293.905C97.725 294.254 96.263 295.084 94.75 295.749C91.418 297.213 91.019 299.411 94.25 298.502C95.487 298.155 98.975 296.821 102 295.538C107.964 293.01 112.799 291.435 112 292.281C111.725 292.572 108.35 294.645 104.5 296.888C100.65 299.13 97.868 300.973 98.318 300.982C98.768 300.992 98.206 302.307 97.068 303.904C94.928 306.91 94.041 315.711 96 314.5C96.55 314.16 97 312.769 97 311.409C97 310.049 97.744 307.263 98.654 305.218C99.564 303.173 100.221 301.107 100.114 300.627C100.006 300.147 100.635 300.03 101.511 300.366C102.387 300.702 102.845 300.558 102.529 300.046C102.212 299.535 103.652 298.328 105.727 297.366C107.802 296.404 111.179 294.578 113.23 293.308C115.282 292.039 117.194 291 117.48 291C117.766 291 118 293.008 118 295.463C118 301.355 121.055 308.863 125.994 315.112C129.363 319.374 130.002 320.92 130.011 324.84C130.017 327.403 130.692 331.709 131.511 334.409C133.429 340.733 133.386 341.988 131.25 342.054C129.504 342.107 124.003 351.858 123.946 355C123.931 355.825 122.64 357.994 121.078 359.82L118.237 363.141L112.723 355.317C107.525 347.941 104.22 340.07 105.472 338.046C105.78 337.547 105.52 336.821 104.893 336.434C103.747 335.726 84 355.225 84 357.064C84 359.889 81.996 357.169 79.716 351.25C75.594 340.551 75.641 340.15 81.942 332.363C88.552 324.195 90.535 323.883 95.942 330.16C98.539 333.175 100.928 335 102.278 335C104.085 335 103.619 334.253 99.473 330.502C96.738 328.028 93.275 325.239 91.779 324.303C90.282 323.368 88.618 321.342 88.081 319.801C87.543 318.261 86.631 317 86.052 317C84.726 317 84.736 317.326 86.158 320.447C87.23 322.8 86.9 323.424 81.709 328.866C78.625 332.099 75.814 335.894 75.461 337.3C74.781 340.007 72.861 341.267 70.685 340.433C69.962 340.155 68.049 337.703 66.435 334.984C64.821 332.265 63.163 330.031 62.75 330.02C62.337 330.009 62 329.492 62 328.871C62 328.25 60.408 325.981 58.463 323.827C56.517 321.674 54.189 318.367 53.288 316.478C51.766 313.286 51.769 312.913 53.325 311.193C55.247 309.07 55.52 307 53.88 307C53.263 307 54.383 305.018 56.368 302.596C58.353 300.174 60.455 296.933 61.04 295.394C62.066 292.696 62.037 292.657 60.221 294.3C59.185 295.237 57.965 295.666 57.51 295.252C57.054 294.838 56.934 295.209 57.243 296.076C57.613 297.116 55.757 299.656 51.791 303.539C48.485 306.777 46.279 309.593 46.89 309.797C47.5 310 48 310.734 48 311.428C48 312.122 49.713 315.347 51.806 318.595C56.212 325.431 57.404 327.97 57.091 329.85C56.952 330.682 57.335 330.911 58.088 330.446C58.893 329.948 59.051 330.108 58.553 330.915C58.127 331.604 58.513 332.873 59.438 333.819C62.791 337.253 69.923 347.187 70.557 349.307C71.374 352.041 80.038 361.095 81.168 360.396C81.626 360.113 82 360.31 82 360.834C82 362.274 85.246 363.22 86 362C87.009 360.368 89.615 361.806 92.498 365.587C93.93 367.464 95.768 369 96.581 369C97.395 369 99.332 370.462 100.886 372.25C108.713 381.255 113 387.167 113 388.952C113 392.667 116.256 397.775 119.945 399.849C125.097 402.744 130.513 403.385 138.878 402.087L146.079 400.97L153.227 406.986C161.624 414.055 166.783 416.752 174.136 417.919C181.896 419.151 185.387 418.321 188.958 414.396C190.658 412.528 192.713 411 193.524 411C194.336 411 195 410.126 195 409.057C195 407.05 198.746 403.725 200.079 404.549C200.493 404.805 202.056 404.549 203.551 403.981C205.664 403.177 206.812 403.302 208.702 404.54C210.699 405.849 211.41 405.904 212.679 404.852C213.529 404.146 215.784 403.704 217.691 403.868C222.043 404.243 224.951 401.792 225.136 397.595C225.252 394.957 225.331 394.869 225.666 397C226.819 404.317 226.443 404 233.954 404C237.758 404 242.058 403.548 243.51 402.996C245.512 402.235 246.67 402.356 248.298 403.496C250.977 405.373 255.32 405.41 261.308 403.608C265.317 402.401 266.095 402.41 267.144 403.674C269.688 406.739 274.116 408.21 278.721 407.519C282.725 406.919 282.994 406.716 281.368 405.527C279.679 404.292 279.651 403.711 280.947 396.852C281.711 392.808 282.373 387.7 282.418 385.5C282.493 381.856 282.255 381.472 279.75 381.184C278.238 381.01 277 380.483 277 380.013C277 379.543 279.588 377.289 282.75 375.004C288.455 370.883 288.555 370.854 295.5 371.362C299.35 371.644 306.738 373.252 311.917 374.937C322.89 378.506 322.075 378.36 321.417 376.643C320.817 375.082 326.747 374 335.903 374C341.372 374 365.979 369.195 371 367.147C375.399 365.352 364.629 365.792 350.389 367.988C326.792 371.628 307.753 371.59 288.75 367.867C283.084 366.756 283 366.689 283 363.304C283 358.581 281.44 356.082 277.452 354.415C271.171 351.791 266.01 352.408 252.562 357.388C248.747 358.802 245.448 359.781 245.231 359.565C245.015 359.348 245.324 358.262 245.919 357.151C247.36 354.459 247.283 353 245.701 353C244.986 353 243.801 354.688 243.066 356.75C241.871 360.106 229 374.563 229 372.549C229 372.1 230.238 370.615 231.75 369.249C233.262 367.883 233.868 367.113 233.095 367.537C232.322 367.962 230.072 368.485 228.095 368.699C226.118 368.912 222.307 369.735 219.627 370.526C214.249 372.114 213.013 371.856 213.513 369.246C213.696 368.286 213.912 367.5 213.992 367.5C214.072 367.5 214.301 366.264 214.5 364.754C214.7 363.244 215.126 360.994 215.447 359.754C215.769 358.514 214.894 359.932 213.504 362.905C212.114 365.878 211.203 368.536 211.48 368.813C212.271 369.605 209.875 372.041 208.898 371.437C208.417 371.14 208.319 371.668 208.681 372.612C209.128 373.776 208.964 374.096 208.17 373.605C206.575 372.619 206.7 370.443 208.452 368.69C209.251 367.892 209.663 366.996 209.368 366.701C209.072 366.406 210.002 362.677 211.433 358.416C212.864 354.154 214.896 346.58 215.947 341.584C218.012 331.775 219.257 328.307 224.616 317.44C228.279 310.014 230.052 301.338 229.34 294.329C229.045 291.428 229.577 288.751 231.086 285.54C233.705 279.969 233.146 278.849 229.758 282.876L227.266 285.837L225.984 281.952C225.279 279.816 223.447 276.59 221.912 274.784L219.121 271.5L220.595 278C221.406 281.575 222.501 286.075 223.029 288C224.576 293.64 224.164 297.295 221.546 301.147C220.196 303.133 219.371 305.038 219.713 305.379C220.054 305.721 219.888 306 219.344 306C218.8 306 217.395 307.913 216.222 310.25C212.984 316.703 208.91 320.936 205.271 321.628C202.393 322.175 201.922 321.93 200.931 319.371C200.274 317.677 199.997 312.811 200.254 307.5C200.648 299.356 201.119 297.596 205.202 289C207.685 283.775 214.954 271.463 221.358 261.64C227.761 251.817 233 243.119 233 242.311C233 241.181 233.752 240.997 236.25 241.514C238.037 241.884 239.969 242.778 240.542 243.5C241.297 244.452 242.085 244.532 243.41 243.791C244.501 243.18 247.704 243.044 251.368 243.453C259.412 244.35 257.758 242.453 249.505 241.316L243.511 240.489L245.568 238.432C246.699 237.301 247.442 235.826 247.218 235.155C246.994 234.483 247.109 233.161 247.473 232.217C248.094 230.604 248.195 230.607 249.121 232.258C249.664 233.225 249.864 234.411 249.565 234.895C248.887 235.992 250.744 237.523 253.949 238.508L256.397 239.261L253.785 236.156C248.308 229.647 247.631 220.614 252.104 213.731C255.804 208.037 257.112 208.515 254.348 214.551C252.982 217.534 252.008 221.218 252.182 222.738C252.469 225.226 252.777 224.919 255.29 219.638C258.07 213.797 263.933 204.697 262.467 208.5C260.194 214.392 262.092 226.537 265.878 230.322C267.703 232.147 267.738 232.02 267.363 224.846C267.137 220.511 267.316 218.271 267.799 219.38C268.457 220.892 269.487 219.444 273.059 211.985C277.763 202.161 279.359 201.737 276.113 211.173C274.103 217.013 274.323 220.999 276.925 225.859C278.6 228.99 277.633 229.633 275.083 227.083C272.444 224.444 271.992 224.469 272.032 227.25C272.07 229.969 273.478 231.856 277.654 234.787C283.066 238.584 287.851 237.228 294.325 230.062C298.53 225.408 299.313 221 295.934 221C292.727 221 289.769 219.043 290.419 217.351C290.735 216.528 290.449 214.875 289.784 213.678C289.119 212.48 288.708 211.05 288.871 210.5C289.034 209.95 288.836 209.831 288.432 210.234C287.278 211.389 285.067 207.791 285.032 204.7C285.014 203.161 285.704 200.539 286.564 198.876C288.943 194.276 290.859 182.696 290.009 178.051C288.591 170.297 283.18 164.4 275.878 162.653L273.256 162.026L274.613 156.263C277.997 141.882 275.49 116.82 269.481 104.962C266.937 99.942 255.084 86.62 249.839 82.885C245.312 79.662 231.509 77.185 208.5 75.468C203.273 75.078 201.407 75.485 194.016 78.63ZM195.547 87.951C193.991 89.575 191.481 91.175 189.967 91.507C188.454 91.84 185.255 93.35 182.858 94.863C180.461 96.376 177.6 97.978 176.5 98.424C172.945 99.862 176.909 100.35 181.05 98.984C184.616 97.807 189.216 98.028 195.914 99.697C197.869 100.185 198.208 99.985 197.696 98.65C197.348 97.742 197.483 97 197.997 97C198.51 97 200.536 95.59 202.499 93.867C207.876 89.145 207.941 91.264 202.578 96.476C199.578 99.392 198.177 101.469 198.675 102.263C199.241 103.163 199.545 103.035 199.792 101.791C200.179 99.84 205.184 96.567 209.241 95.612C216.211 93.971 229.821 101.772 237.967 112.077C248.41 125.289 254.105 138.753 256.544 156C256.894 158.475 257.67 162.522 258.27 164.993L259.36 169.486L260.174 166.493C262.003 159.766 258.651 132.64 254.619 121.53C251.659 113.376 242.329 99.379 236.16 93.839C230.943 89.152 222.828 85.657 218.371 86.176C215.95 86.458 215.586 86.939 215.546 89.912C215.488 94.226 213.338 95.196 213.218 90.963C213.079 86.074 211.52 85 204.565 85C199.014 85 198.082 85.305 195.547 87.951ZM252 93.5C252 95.713 251.595 96.106 249.464 95.964C248.743 95.916 246 98.698 246 99.477C246 99.818 248.237 103.814 250.971 108.356C253.704 112.898 256.72 118.389 257.672 120.557C259.105 123.82 259.465 124.13 259.758 122.352C259.953 121.171 259.414 118.471 258.562 116.352C257.015 112.511 257.016 112.506 258.929 114.766C261.212 117.464 263.338 123.121 265.405 132L266.918 138.5L266.571 129C266.379 123.775 265.919 118.6 265.548 117.5C265.176 116.4 265.653 116.85 266.607 118.5C267.561 120.15 268.669 122.85 269.069 124.5L269.795 127.5L269.886 124C270.103 115.599 264.275 101.459 258.036 95.25C253.11 90.349 252 90.027 252 93.5ZM167.837 114.738C165.1 116.402 163.288 122 165.486 122C167.57 122 171.812 116.603 171.137 114.81C170.546 113.243 170.306 113.237 167.837 114.738ZM196 115.003C191.948 115.695 187.416 117.627 178.5 122.464C175.279 124.212 171.402 129.551 170.37 133.66C170.021 135.052 168.401 137.002 166.769 137.994L163.803 139.798L167.152 140.508C168.993 140.898 172.525 142.094 175 143.166C183.814 146.982 186.327 157.959 182 173.734C179.464 182.975 179.492 184.53 182.223 186.443C184.711 188.186 190.55 188.537 191.5 187C191.84 186.45 192.879 186.052 193.809 186.116C195.334 186.221 195.328 186.277 193.75 186.689C192.787 186.941 192 187.491 192 187.913C192 189.558 186.606 191 180.453 191C176.904 191 174 191.436 174 191.969C174 192.501 173.279 192.661 172.399 192.323C171.22 191.87 170.893 192.208 171.16 193.604C171.64 196.114 177.039 196.803 197 196.901C212.142 196.976 220.026 196.365 219.974 195.119C219.96 194.779 217.504 192.7 214.516 190.5C211.529 188.3 209.065 186.173 209.042 185.773C209.019 185.373 207.907 184.33 206.57 183.454C204.39 182.026 203.902 182.018 201.82 183.378C199.533 184.872 199.499 184.838 199.454 181.021C199.4 176.475 198.762 176.282 211.739 184.741C217.73 188.646 221.307 190.325 223.789 190.397C227.072 190.493 227.562 190.089 230.77 184.637C232.668 181.413 234.458 177.003 234.749 174.837C235.211 171.387 234.885 170.516 232.112 167.805C228.743 164.512 228.259 164.439 217 165.538C210.361 166.186 205 165.022 205 162.931C205 162.316 205.922 161.572 207.048 161.277C209.627 160.603 209.202 157.5 206.531 157.5C205.324 157.5 204.383 158.379 204.041 159.826L203.492 162.151L201.253 159.576C200.021 158.159 198.56 157 198.007 157C195.831 157 197.192 154.901 201.004 152.379C204.432 150.11 205.679 149.821 209.673 150.369C212.239 150.72 216.728 152.102 219.65 153.44C222.612 154.796 225.216 155.46 225.537 154.94C226.484 153.408 223.682 148.654 221 147.242C217.724 145.516 204.503 146.038 200.5 148.051C197.02 149.8 194 149.494 194 147.391C194 145.135 202.752 141.828 210.25 141.251C214.105 140.954 217 140.267 217 139.649C217 139.054 216.372 136.752 215.603 134.533C214.835 132.315 213.646 128.611 212.961 126.302C212.275 123.993 211.104 121.87 210.357 121.584C209.611 121.297 209 120.406 209 119.604C209 117.751 204.246 113.962 202.115 114.118C201.227 114.182 198.475 114.581 196 115.003ZM215.773 114.56C214.973 115.36 217.401 124.047 220.901 132.907C222.551 137.083 225.538 145 227.54 150.5C231.411 161.135 235.477 168.441 237.001 167.499C237.51 167.185 237.045 165.481 235.967 163.714C234.889 161.946 234.024 159.6 234.044 158.5C234.073 156.894 234.397 157.092 235.685 159.5C237.678 163.224 239.079 164.179 240.645 162.88C242.05 161.714 248 164.357 248 166.148C248 166.839 247.352 166.737 246.25 165.872C244.629 164.601 244.611 164.645 246 166.46C246.825 167.537 249.041 169.787 250.925 171.46C252.809 173.132 255.67 176.525 257.284 179C258.897 181.475 259.968 182.825 259.665 182C259.362 181.175 258.588 178.601 257.946 176.28C257.303 173.959 256.153 171.542 255.389 170.908C253.706 169.511 253.612 170.382 255.13 173.316C256.058 175.11 255.709 174.984 253.177 172.608C251.482 171.018 250.166 169.443 250.253 169.108C250.34 168.774 249.644 167.06 248.706 165.3C246.569 161.29 246.531 156.366 248.601 151.412C251.703 143.988 246.79 126.366 240.221 121.355C237.669 119.408 236.828 119.109 237.29 120.313C238.178 122.628 237.778 122.46 234.157 119C231.211 116.184 227 114.932 227 116.873C227 117.353 227.923 119.833 229.052 122.384C231.586 128.113 230.666 130.339 227.41 126.358C226.124 124.786 225.056 122.953 225.036 122.285C225.016 121.616 223.603 119.479 221.896 117.535C218.972 114.205 217.058 113.275 215.773 114.56ZM236.032 143.711C236.049 144.695 236.671 146.301 237.414 147.279C238.662 148.925 238.812 148.932 239.408 147.378C239.808 146.338 239.282 144.98 238.027 143.81C236.118 142.032 236.002 142.026 236.032 143.711ZM160.813 148.188C158.38 150.62 159.663 151.786 162.879 150.065C163.973 149.479 167.261 148.96 170.184 148.911L175.5 148.821L170.5 147.43C163.888 145.59 163.369 145.631 160.813 148.188ZM232.07 150.083C232.109 151.412 232.548 153.4 233.047 154.5C233.678 155.894 233.768 155.288 233.344 152.5C232.637 147.857 231.969 146.589 232.07 150.083ZM165.57 156.887C164.889 157.988 167.438 160.229 168.342 159.325C168.704 158.963 169 158.067 169 157.333C169 155.844 166.422 155.508 165.57 156.887ZM176.29 159C176.002 160.1 175.294 161 174.717 161C174.139 161 173.909 161.242 174.204 161.537C175.26 162.594 179.844 159.757 179.314 158.376C178.54 156.358 176.892 156.699 176.29 159ZM241.015 169.657C241.007 170.293 243.354 172.768 246.231 175.157C249.109 177.546 252.511 180.625 253.792 182C255.857 184.217 256.002 184.255 255.072 182.337C254.495 181.147 251.43 177.997 248.261 175.337C245.093 172.677 242.169 170.05 241.765 169.5C241.299 168.865 241.025 168.923 241.015 169.657ZM246.71 187.47C245.24 188.545 245.187 188.858 246.397 189.322C247.198 189.63 248.359 189.273 248.975 188.53C250.525 186.663 248.871 185.89 246.71 187.47ZM241.252 194.536C240.047 195.38 238.325 197.619 237.428 199.511C236.53 201.403 234.041 204.943 231.898 207.379C227.723 212.121 227.4 213.303 229.078 217.685C230.141 220.46 230.211 220.386 234.039 212.396C236.754 206.73 239.648 202.593 243.659 198.646C249.393 193.002 249.394 193 246.42 193C244.784 193 242.458 193.691 241.252 194.536ZM257.473 198.596C255.591 200.545 252.354 202.336 248.91 203.338C240.903 205.666 231.39 213 236.378 213C237.135 213 238.343 212.292 239.061 211.427C240.552 209.63 247.28 206.014 249.21 205.972C250.903 205.936 257.86 200.645 259.733 197.97C261.965 194.784 260.861 195.09 257.473 198.596ZM197.5 200.033C193.65 200.428 186.9 200.815 182.5 200.893L174.5 201.034L177.684 203.073C180.347 204.779 182.56 205.121 191.184 205.16C201.81 205.208 205.407 204.398 209.753 200.98L212.27 199L208.385 199.157C206.248 199.244 201.35 199.638 197.5 200.033ZM188 207.949L182.5 208.572L189 209.055C196.279 209.596 200 209.2 200 207.883C200 206.937 196.777 206.955 188 207.949ZM244 210.488C237.951 214.998 235.603 220.806 237.752 225.948C238.567 227.9 239.883 230.397 240.676 231.498C241.965 233.288 242.049 232.76 241.47 226.5C240.71 218.28 241.488 215.859 246.528 210.75C251.081 206.135 249.991 206.023 244 210.488ZM269.947 210.639C269.395 212.09 269.13 213.463 269.356 213.69C269.583 213.917 270.247 212.729 270.832 211.051C272.133 207.321 271.348 206.955 269.947 210.639ZM167.561 213.25C168.88 217.518 172.317 223.497 172.738 222.259C173.225 220.828 171.215 214.099 169.747 212.25C168.134 210.217 166.81 210.822 167.561 213.25ZM140.25 226.689C141.213 226.941 142.787 226.941 143.75 226.689C144.713 226.438 143.925 226.232 142 226.232C140.075 226.232 139.287 226.438 140.25 226.689ZM132.865 228.407C128.941 230.462 125.53 232.468 125 233.033C124.725 233.326 122.25 235.203 119.5 237.203C113.993 241.208 109.299 245.986 106.609 250.323C104.926 253.037 104.929 253.106 106.679 252.118C107.681 251.553 111.385 248.134 114.911 244.52C123.718 235.493 131.216 231.101 140.061 229.788C143.921 229.215 146.949 228.641 146.79 228.511C145.498 227.463 134.82 227.383 132.865 228.407ZM223.769 228.624C222.622 230.387 213.506 234.367 201.473 238.359C191.524 241.659 190.267 242.349 188.614 245.417C187.607 247.288 185.225 250.321 183.322 252.159C180.019 255.346 179.797 255.414 178.481 253.628C177.29 252.013 177.368 251.052 179.05 246.628C180.122 243.808 180.999 240.963 180.999 240.307C181 238.212 176.759 231.841 175.925 232.686C174.994 233.632 174.206 238.002 174.067 243C173.993 245.645 173.732 246.133 173 245C172.146 243.679 172.029 243.686 172.015 245.054C171.969 249.765 181.288 259.953 191.643 266.511C194.865 268.551 198.412 271.055 199.527 272.075C201.53 273.907 201.672 273.799 211.187 263.198C220.784 252.505 230 240.735 230 239.172C230 238.719 228.899 237.315 227.554 236.051C226.209 234.787 224.971 232.346 224.804 230.627C224.633 228.867 224.18 227.992 223.769 228.624ZM239 236.892C239 237.566 238.55 237.84 238 237.5C237.45 237.16 237 237.101 237 237.368C237 237.635 238.42 238.562 240.156 239.428L243.312 241.002L241.417 238.751C240.374 237.513 239.404 236.313 239.261 236.083C239.117 235.854 239 236.218 239 236.892ZM310 242.011C310 242.49 308.087 243.311 305.75 243.834C301.928 244.69 301.811 244.797 304.595 244.893C306.297 244.952 308.437 245.825 309.349 246.833C310.944 248.595 314.928 261.634 314.976 265.25C315.015 268.089 312.346 267.25 311 264C309.623 260.675 308.52 260.203 307.618 262.553C307.286 263.419 307.903 265.053 309.011 266.242C310.105 267.416 311 268.694 311 269.082C311 270.291 307.557 271.172 307.186 270.057C306.721 268.663 303.721 268.714 300.524 270.171C298.357 271.158 297.347 271.001 294.091 269.171C291.966 267.977 289.22 267 287.989 267C286.035 267 285.826 266.619 286.35 264C286.794 261.778 286.577 261 285.51 261C283.599 261 282 257.852 282 254.087C282 251.195 281.874 251.1 279.476 252.193C276.454 253.57 275.554 256.539 276.415 262.285C276.871 265.324 276.626 267.11 275.559 268.522C274.071 270.491 274.063 270.49 273.913 268.5C273.831 267.4 273.834 266.111 273.919 265.636C274.305 263.508 270.855 254.158 269.491 253.635C267.658 252.932 268.126 255.328 271.673 264.818C272.971 268.293 273.732 271.625 273.362 272.222C272.988 272.828 273.151 273.025 273.73 272.667C275.589 271.518 277.086 280.858 276.966 292.856C276.901 299.26 277.314 311.235 277.881 319.468C279.031 336.145 279.235 335.528 272.227 336.588C267.131 337.358 257.5 334.357 257.5 331.999C257.5 331.186 260.762 328.57 264.75 326.183L272 321.845V316.942C272 311.772 271.98 311.753 265.583 310.789C264.528 310.63 263.482 309.949 263.258 309.275C262.965 308.394 264.343 308.114 268.175 308.275L273.5 308.5L273.796 302.881C274.047 298.125 273.716 296.816 271.64 294.349C269.089 291.317 269.079 290.659 271.432 280.5C272.662 275.185 270.142 280.27 266.881 289.681C265.237 294.426 263.293 299.477 262.561 300.904C261.204 303.55 252.613 329.293 251.448 334.201C250.87 336.638 251.35 337.248 256.356 340.451C262.81 344.58 263.346 344.66 266.727 342C270.179 339.285 272.472 339.271 270.783 341.975C269.741 343.644 269.856 344.178 271.525 345.415C276.358 349 294.524 357.143 300.704 358.495C304.442 359.313 309.264 360.406 311.42 360.924C319.521 362.871 339.061 363.261 348.768 361.67C361.971 359.506 372.342 356.203 376.191 352.935L379.5 350.127L371 352.998C356.551 357.878 348.053 359.177 330.5 359.186C307.024 359.199 291.598 355.408 284.349 347.843C281.655 345.032 281.488 344.339 281.28 335.092L281.061 325.314L286.366 326.228C289.507 326.769 293.065 326.778 295.086 326.249L298.5 325.356L298.578 313.428C298.62 306.868 298.733 300.503 298.828 299.285C299.036 296.604 302.318 294.649 305.119 295.538C306.955 296.121 307.129 296.863 306.832 302.843C306.528 308.944 306.667 309.5 308.5 309.5C310.319 309.5 310.545 308.667 311 300.295C311.515 290.816 311.964 289.688 315.673 288.57C317.672 287.967 317.911 288.377 318.671 293.707C319.125 296.893 319.478 306.363 319.455 314.75C319.428 324.936 319.769 330 320.483 330C321.134 330 321.405 328.337 321.174 325.75C320.766 321.178 322.45 321.377 323.279 326C323.526 327.375 323.795 322.2 323.877 314.5C324.044 298.97 324.44 296.429 326.84 295.508C330.115 294.251 332 298.517 332 307.184C332 314.229 332.202 315.108 333.75 314.809C335.262 314.517 335.5 313.246 335.5 305.449C335.5 296.023 337.246 291 340.523 291C341.696 291 342 292.561 342 298.573C342 305.251 342.207 306.106 343.75 305.802C345.251 305.506 345.5 304.257 345.5 297.02V288.584L351.5 287.357C357.356 286.16 357.379 286.142 352.475 286.628C347.497 287.121 347.44 287.094 346.475 283.813C345.788 281.481 344.982 280.587 343.75 280.794C342.558 280.994 342 280.436 342 279.044C342 277.92 342.653 277 343.45 277C344.248 277 345.359 276.212 345.92 275.25C346.486 274.279 346.953 274.056 346.97 274.75C347.014 276.569 351.677 276.284 352.393 274.419C352.727 273.549 352.358 271.922 351.574 270.802C350.499 269.267 350.407 268.201 351.201 266.457C352.448 263.721 351.464 258.842 349.722 259.12C347.692 259.444 345 257.877 345 256.372C345 255.594 343.875 254.445 342.5 253.818C341.125 253.192 340 252.336 340 251.917C340 251.498 338.313 250.613 336.25 249.951C334.188 249.289 331.709 248.056 330.743 247.212C329.777 246.368 327.423 245.623 325.513 245.557C323.528 245.488 321.496 244.709 320.77 243.739C319.431 241.95 310 240.436 310 242.011ZM313.591 243.853C313.301 244.322 313.71 245.559 314.5 246.603C315.861 248.4 315.938 248.356 315.968 245.75C315.999 243.111 314.694 242.069 313.591 243.853ZM167.783 251.246C166.43 253.036 163.074 258.877 160.326 264.227L155.328 273.953L158.414 274.938C171.869 279.23 192.089 282.558 195.059 280.969C196.701 280.09 200.465 275.052 199.83 274.583C199.648 274.449 196.35 272.607 192.5 270.489C184.643 266.169 177.721 259.783 173.248 252.73L170.243 247.992L167.783 251.246ZM278.015 257.75C278.024 258.163 278.467 259.175 279 260C279.784 261.213 279.972 261.069 279.985 259.25C279.993 258.012 279.55 257 279 257C278.45 257 278.007 257.337 278.015 257.75ZM339 259.573C339 262.856 342.345 262.564 342.82 259.24C343.062 257.539 342.641 257 341.07 257C339.513 257 339 257.638 339 259.573ZM320.578 258.874C319.352 260.857 322.481 261.824 325.5 260.397C327.413 259.492 327.736 259.116 326.392 259.358C325.233 259.567 323.575 259.342 322.709 258.857C321.792 258.344 320.901 258.351 320.578 258.874ZM316.25 265.696C316.25 268.534 318.8 268.443 320.962 265.529C322.39 263.602 322.437 263.614 323.006 266.023C323.584 268.475 327 270.177 327 268.014C327 267.392 326.55 267.16 326 267.5C325.431 267.852 325 266.995 325 265.513C325 263.069 324.73 262.922 320.625 263.134C316.772 263.334 316.25 263.639 316.25 265.696ZM329 265.393C329 267.109 331.66 270 333.238 270C333.84 270 334.037 269.704 333.675 269.342C333.313 268.98 333.485 268.12 334.057 267.431C334.778 266.563 334.775 265.979 334.049 265.53C333.472 265.174 333 265.149 333 265.476C333 265.803 332.1 265.589 331 265C329.423 264.156 329 264.24 329 265.393ZM86 269.003C86 270.58 87.748 271.008 88.836 269.698C89.634 268.736 89.414 268.381 87.949 268.271C86.877 268.19 86 268.52 86 269.003ZM281.13 271.067C277.997 272.972 277.391 274.964 279.71 275.737C280.797 276.099 285.575 270.241 284.813 269.479C284.59 269.256 282.933 269.971 281.13 271.067ZM334.564 270.707C334.022 272.132 334.136 272.247 335.124 271.267C335.808 270.588 336.115 269.781 335.807 269.474C335.499 269.166 334.94 269.721 334.564 270.707ZM79.93 273.739C73.682 279.013 73 279.721 73 280.929C73 281.518 72.213 282.007 71.25 282.015C69.754 282.028 69.718 282.172 71 283C72.248 283.807 72.164 283.985 70.5 284.064C69.4 284.115 69.053 284.382 69.729 284.655C71.366 285.318 82.096 275.988 81.301 274.592C80.959 273.992 81.052 273.838 81.509 274.252C82.38 275.043 86 272.297 86 270.845C86 269.228 84.333 270.023 79.93 273.739ZM153.767 283.75C148.888 291.728 147.068 295.462 145.432 300.852C143.374 307.633 143.788 310.489 145.888 304C146.867 300.975 148.957 296.025 150.533 293C154.455 285.473 157.973 278 157.596 278C157.425 278 155.702 280.587 153.767 283.75ZM161.195 286.614C156.542 295.176 151.693 309.692 153.178 310.61C154.579 311.476 154.885 310.88 155.963 305.197C156.844 300.547 159.835 293.235 165.142 282.75C168.721 275.681 165.336 278.994 161.195 286.614ZM201.441 280.468C199.542 281.905 199.547 281.937 201.668 281.968C204.685 282.012 207.096 280.964 206.435 279.895C205.62 278.577 203.642 278.803 201.441 280.468ZM171.725 284.02C165.368 293.741 160.478 314.323 164.007 316.504C165.304 317.306 165.733 315.875 166.449 308.356C167.011 302.465 168.915 295.9 172.455 287.657C174.456 282.995 173.973 280.584 171.725 284.02ZM182.234 284.226C181.044 285.668 176.584 299.202 175.059 306C174.503 308.475 174.105 312.525 174.174 315C174.256 317.936 174.445 318.538 174.718 316.733C174.948 315.211 175.469 314.172 175.876 314.424C176.283 314.675 177.168 311.068 177.842 306.407C178.516 301.747 180.212 294.759 181.612 290.879C184.109 283.956 184.32 281.696 182.234 284.226ZM192.174 292.75C189.873 302.568 188.659 314.671 189.897 315.436C190.346 315.714 190.966 311.566 191.276 306.22C191.586 300.874 192.728 293.688 193.815 290.25C194.901 286.813 195.438 284 195.007 284C194.576 284 193.301 287.938 192.174 292.75ZM333.667 285.667C333.3 286.033 333 287.158 333 288.167C333 289.639 333.788 290 337 290C340.258 290 341 289.649 341 288.107C341 285.536 335.596 283.738 333.667 285.667ZM323.25 286.706C319.557 287.417 320.491 290 324.441 290C328.187 290 330.077 288.297 327.878 286.904C327.12 286.423 326.275 286.085 326 286.151C325.725 286.218 324.488 286.467 323.25 286.706ZM288.184 293.596C284.348 297.929 284.181 299.738 287.5 301C288.875 301.523 290 302.562 290 303.309C290 304.056 290.668 304.667 291.484 304.667C292.687 304.667 292.734 304.378 291.734 303.141C290.752 301.928 290.755 301.77 291.75 302.367C292.438 302.78 293 302.674 293 302.132C293 301.59 292.255 301.001 291.345 300.823C290.25 300.609 289.658 299.433 289.595 297.345C289.543 295.61 289.872 294.421 290.327 294.702C290.781 294.983 291.999 294.305 293.032 293.196C294.659 291.449 294.705 291.101 293.373 290.59C292.528 290.265 291.731 290 291.602 290C291.473 290 289.935 291.618 288.184 293.596ZM138.462 297.462C137.499 299.982 136.951 302.284 137.243 302.576C137.536 302.869 138.499 300.983 139.385 298.385C141.477 292.245 140.737 291.505 138.462 297.462ZM122.754 296C121.161 301.481 121.901 306.727 124.75 310.156C131.292 318.03 135.35 320.457 143.5 321.369L148.5 321.929L143.5 320.624C136.475 318.79 132.49 316.52 129.677 312.751C125.659 307.367 124.587 304.761 124.021 299C123.588 294.593 123.336 293.997 122.754 296ZM291.333 298.456C291.333 299.257 291.716 299.676 292.183 299.387C292.65 299.098 292.774 298.443 292.457 297.931C291.649 296.623 291.333 296.77 291.333 298.456ZM222.781 306.446C221.596 312.951 215.789 320.301 208.959 323.941C203.073 327.078 200.825 329.806 205.25 328.441C216.026 325.117 224.428 315.264 223.804 306.684L223.5 302.5L222.781 306.446ZM69.5 307C68.456 308.689 69.975 310 72.977 310C77.458 310 79.274 309.035 77.903 307.383C76.582 305.791 70.421 305.51 69.5 307ZM280 315C280 317.533 280.389 318 282.5 318C284.611 318 285 317.533 285 315C285 312.467 284.611 312 282.5 312C280.389 312 280 312.467 280 315ZM290 319.378C290 319.585 290.788 320.373 291.75 321.128C293.336 322.371 293.371 322.336 292.128 320.75C290.821 319.084 290 318.555 290 319.378ZM165.5 326C165.84 326.55 166.316 327 166.559 327C166.802 327 167 326.55 167 326C167 325.45 166.523 325 165.941 325C165.359 325 165.16 325.45 165.5 326ZM213.71 328.568C209.855 332.142 201.347 345.046 199.12 350.695C196.897 356.335 193.953 366 194.458 366C194.651 366 196.158 363.611 197.806 360.69C200.517 355.887 204.011 352.24 209.964 348C211.459 346.936 212.794 343.629 214.563 336.611C215.934 331.173 216.909 326.576 216.73 326.397C216.551 326.217 215.192 327.194 213.71 328.568ZM144.053 327C143.949 328.968 149.815 346.088 150.56 345.991C151.714 345.841 151.381 343.85 149.221 338C147.512 333.373 144.1 326.11 144.053 327ZM155.047 330.73C154.988 332.267 158.124 340.21 158.601 339.732C158.794 339.54 158.084 337.158 157.023 334.441C155.962 331.723 155.073 330.053 155.047 330.73ZM167.07 338.809C167.025 344.11 167.362 346.894 168 346.5C169.207 345.754 169.207 335.308 168 332.5C167.424 331.159 167.117 333.237 167.07 338.809ZM204 333.106C204 334.264 202.653 336.913 201.007 338.991C196.917 344.155 191.985 353.737 192.07 356.352C192.122 357.914 192.498 357.53 193.45 354.945C195.905 348.283 199.243 342.507 203.624 337.341C206.031 334.503 208 331.915 208 331.591C208 331.266 207.1 331 206 331C204.633 331 204 331.667 204 333.106ZM99.07 347.688C97.607 352.955 97.761 358.034 99.472 361C100.265 362.375 101.372 364.512 101.932 365.75C102.492 366.988 103.213 368 103.534 368C103.855 368 103.84 367.55 103.5 367C103.16 366.45 103.122 366 103.415 366C104.091 366 107.312 372.038 107.629 373.897C107.759 374.666 108.624 376.016 109.55 376.897C111.115 378.387 111.15 378.336 110.041 376.174C108.924 373.995 108.981 373.92 110.952 374.974C112.109 375.594 112.749 376.597 112.373 377.205C111.977 377.847 112.146 378.028 112.779 377.637C113.386 377.262 114.667 378.321 115.679 380.035C117.021 382.305 118.015 382.964 119.496 382.566C120.598 382.27 123.847 382.021 126.715 382.014C131.131 382.002 132.482 381.516 135.524 378.845C138.655 376.096 138.932 375.503 137.676 374.247C136.546 373.118 135.774 373.051 134.117 373.938C132.952 374.561 132 375.505 132 376.035C132 376.566 131.472 377 130.826 377C130.18 377 130.63 375.958 131.826 374.686C135.248 371.043 134.635 369.479 129.955 369.913C129.106 369.992 126.406 369.375 123.955 368.542L119.5 367.028L123.477 370.454C125.664 372.338 127.191 374.143 126.87 374.464C125.751 375.582 123.483 373.943 121.015 370.234C119.649 368.18 116.366 364.025 113.72 361C111.074 357.975 107.46 353.06 105.689 350.078C103.918 347.096 101.942 344.481 101.299 344.266C100.643 344.048 99.663 345.551 99.07 347.688ZM179.776 345.792C178.887 349.128 180.181 368.143 181.083 365C182.006 361.786 182.013 349.25 181.094 346L180.387 343.5L179.776 345.792ZM147.079 362.583C147.127 363.748 147.364 363.985 147.683 363.188C147.972 362.466 147.936 361.603 147.604 361.271C147.272 360.939 147.036 361.529 147.079 362.583ZM190.079 363.583C190.127 364.748 190.364 364.985 190.683 364.188C190.972 363.466 190.936 362.603 190.604 362.271C190.272 361.939 190.036 362.529 190.079 363.583ZM242.32 363.952C238.608 366.209 235.139 370.672 231.595 377.75L228.966 383H232.444C235.746 383 235.997 382.75 237.384 378.079C239.246 371.808 240.621 369.169 243.799 365.76C247.011 362.317 246.345 361.504 242.32 363.952ZM257.697 364.024C254.461 366.569 249.733 376.086 250.17 379.173C250.463 381.238 250.989 381.478 254.838 381.302C257.62 381.175 259.771 380.434 260.838 379.236C261.752 378.209 264.75 376.355 267.5 375.117C270.25 373.879 274.3 371.983 276.5 370.905L280.5 368.945L273.632 369.512L266.763 370.08L267.425 367.444C268.75 362.163 262.746 360.052 257.697 364.024ZM144.539 365.878C143.531 369.054 146.257 371.955 148.769 370.381C149.721 369.784 150.653 368.256 150.841 366.986C151.159 364.832 151.069 364.788 149.519 366.338C147.371 368.486 147.098 368.44 146.109 365.766L145.283 363.533L144.539 365.878ZM219.524 365.596C215.26 367.157 211.897 369.74 215.5 368.688C222.386 366.676 228.241 364.14 226 364.141C224.625 364.141 221.711 364.796 219.524 365.596ZM104.232 371C104.919 372.1 105.827 373 106.249 373C106.671 373 106.455 372.1 105.768 371C105.081 369.9 104.173 369 103.751 369C103.329 369 103.545 369.9 104.232 371ZM200.37 375.44C197.484 376.696 194.777 379.236 196.676 378.906C199.192 378.469 200.327 379.5 202.559 384.25L205.025 389.5L204.871 382.883C204.787 379.244 205.032 375.757 205.418 375.133C206.347 373.63 204.235 373.759 200.37 375.44ZM206.923 376.25C206.881 376.938 206.696 378.288 206.512 379.25C206.328 380.212 206.734 381 207.415 381C208.222 381 208.5 379.955 208.213 378C207.765 374.944 207.062 373.99 206.923 376.25ZM224.264 378.387L220.028 381.756L223.139 382.378C227.599 383.27 227.716 383.232 228.255 380.75C228.523 379.512 229.074 377.712 229.478 376.75C230.578 374.134 228.984 374.634 224.264 378.387ZM169.75 376.732C172.088 376.943 175.912 376.943 178.25 376.732C180.588 376.522 178.675 376.349 174 376.349C169.325 376.349 167.412 376.522 169.75 376.732ZM160.031 378.75C160.074 381.114 164.664 384.345 166.803 383.515C168.343 382.918 168.315 382.724 166.5 381.41C165.4 380.613 163.707 379.296 162.739 378.481C160.464 376.568 159.993 376.615 160.031 378.75ZM112.5 380C112.84 380.55 113.316 381 113.559 381C113.802 381 114 380.55 114 380C114 379.45 113.523 379 112.941 379C112.359 379 112.16 379.45 112.5 380ZM142.564 381.707C142.022 383.132 142.136 383.247 143.124 382.267C143.808 381.588 144.115 380.781 143.807 380.474C143.499 380.166 142.94 380.721 142.564 381.707ZM157.096 383.82C156.306 385.296 156.679 385.97 159.063 387.378C163.783 390.167 166.252 386.691 161.777 383.557C158.93 381.562 158.285 381.598 157.096 383.82ZM213.66 391.221C213.309 394.188 213.465 396.865 214.021 397.421C214.66 398.06 215.005 397.027 215.014 394.45C215.021 392.277 215.299 389.488 215.63 388.25C215.962 387.012 215.793 386 215.256 386C214.718 386 214 388.349 213.66 391.221ZM155.615 387.719C154.32 389.013 155.085 392.628 157 394.268C158.343 395.418 159.005 395.573 159.015 394.74C159.027 393.833 159.259 393.861 159.883 394.845C160.509 395.833 160.916 395.469 161.416 393.477C161.791 391.985 161.963 390.681 161.799 390.579C161.634 390.478 160.314 389.654 158.865 388.749C157.415 387.844 155.953 387.381 155.615 387.719ZM129.101 389.378C127.655 391.12 129.319 396 131.359 396C133.361 396 134.051 391.194 132.301 389.444C130.533 387.676 130.514 387.675 129.101 389.378ZM179.405 395.155L177.5 397.31L180.25 395.54C183.086 393.715 183.622 393 182.155 393C181.69 393 180.453 393.97 179.405 395.155ZM175.157 395.69C176.044 396.758 175.934 396.912 174.641 396.416C173.44 395.955 173 396.35 173 397.893C173 400.089 174.433 400.726 175.498 399.004C176.816 396.87 176.777 394.333 175.426 394.333C174.366 394.333 174.301 394.658 175.157 395.69ZM277.195 402.5C277.215 404.15 277.439 404.704 277.693 403.731C277.947 402.758 277.93 401.408 277.656 400.731C277.382 400.054 277.175 400.85 277.195 402.5ZM179.211 402.601C178.501 403.37 178.362 404 178.902 404C179.94 404 181.443 402.098 180.85 401.534C180.658 401.351 179.92 401.831 179.211 402.601ZM180 405C178.793 405.78 178.951 405.972 180.809 405.985C182.097 405.993 182.845 405.558 182.5 405C181.757 403.798 181.861 403.798 180 405ZM182 409C181.099 409.582 180.975 409.975 181.691 409.985C182.346 409.993 183.16 409.55 183.5 409C184.267 407.758 183.921 407.758 182 409ZM24 445V467H31.066C44.187 467 44.928 465.848 44.968 445.386C45 429.501 44.964 429.237 42.493 426.766C39.898 424.171 35.57 423.03 28.25 423.011L24 423V445ZM54.5 423.894C53.4 424.373 51.6 425.763 50.5 426.984C48.745 428.932 48.462 430.874 48.186 442.852C47.796 459.804 48.809 463.674 54.348 466.379C57.645 467.989 58.754 468.091 62.102 467.088C67.274 465.538 68.658 463.032 69.485 453.725C70.535 441.896 69.226 429.374 66.623 426.348C64.302 423.65 57.996 422.374 54.5 423.894ZM78.357 423.992C73.643 425.894 73 428.387 73 444.772C73 462.379 73.8 465.119 79.486 466.995C87.293 469.572 92.776 465.57 93.7 456.622L94.28 451H90.748C87.323 451 87.19 451.144 86.349 455.75C85.588 459.913 85.173 460.5 82.99 460.5H80.5V445.5V430.5L83.25 430.184C85.84 429.886 86 430.097 86 433.827C86 438.044 87.056 439 91.709 439C94.173 439 94.239 438.835 93.756 433.809C93.35 429.589 92.669 428.094 90.113 425.809C86.857 422.9 82.667 422.252 78.357 423.992ZM100.25 423.723L97 424.127V445.563V467H106.5H116V464C116 461.09 115.858 461 111.25 460.985C104.531 460.963 103.831 460.261 104.192 453.905L104.5 448.5H108.5C112.282 448.5 112.517 448.323 112.813 445.25C113.126 442.008 113.116 442 108.513 442H103.9L104.2 436.25L104.5 430.5L110.25 430.2L116 429.9V426.45V423L109.75 423.16C106.313 423.248 102.037 423.502 100.25 423.723ZM120.707 423.626C120.318 424.015 120 433.933 120 445.667V467H123.5H127V457.893C127 449.999 127.211 448.867 128.582 449.393C129.452 449.727 130.749 450 131.464 450C132.373 450 132.976 452.556 133.471 458.5L134.18 467H137.731H141.282L140.748 458.447C140.372 452.41 139.719 449.347 138.529 448.032C136.946 446.283 136.954 446 138.655 443.404C139.879 441.536 140.467 438.753 140.467 434.825C140.467 426.698 138.077 424.458 128.457 423.57C124.583 423.212 121.096 423.238 120.707 423.626ZM145.067 424.874C143.892 427.07 143.61 450.973 144.642 460.853L145.285 467H148.662H152.039L151.77 445.25L151.5 423.5L148.817 423.19C146.951 422.974 145.81 423.487 145.067 424.874ZM161.571 424.195C160.927 426.252 156.2 454.872 155.439 461.323L154.751 467.145L158.126 466.823C161.244 466.524 161.524 466.212 161.814 462.696L162.127 458.891L166.314 459.196C170.366 459.49 170.51 459.62 170.81 463.25C171.113 466.908 171.219 467 175.128 467C178.474 467 179.05 466.711 178.618 465.25C178.334 464.288 176.95 456.3 175.543 447.5C171.283 420.858 172.258 423.549 166.74 423.195C163.482 422.986 161.851 423.301 161.571 424.195ZM195.607 425.75C195.304 427.262 193.898 435.925 192.485 445C191.071 454.075 189.672 462.738 189.377 464.25C188.876 466.822 189.064 467 192.293 467C195.546 467 195.781 466.771 196.384 463C197.006 459.109 197.132 459 201.012 459C204.563 459 205 459.265 205 461.418C205 465.754 206.024 467 209.588 467H212.962L212.401 462.25C212.092 459.637 211.003 453 209.979 447.5C208.956 442 207.843 435.475 207.506 433C206.087 422.587 206.356 423 201 423C196.519 423 196.118 423.205 195.607 425.75ZM217.25 423.662C216.305 424.044 216 429.386 216 445.583V467H219.5H223V458C223 453.05 223.196 449 223.435 449C223.674 449 225.024 449.439 226.435 449.975C228.822 450.883 229 451.397 229 457.393C229 466.034 229.478 467 233.755 467H237.295L236.638 458.45C236.276 453.748 235.339 448.91 234.554 447.7C233.319 445.794 233.32 445.241 234.564 443.559C236.687 440.689 236.48 429.813 234.25 427.061C231.774 424.006 221.494 421.95 217.25 423.662ZM238.528 423.954C238.204 424.479 238.226 426.054 238.578 427.454C239.105 429.556 239.808 430 242.608 430H246V448.5V467H249.5H253V448.5V430H256.5C259.688 430 260 429.744 260 427.125C260 424.705 259.505 424.151 256.875 423.625C252.036 422.657 239.187 422.888 238.528 423.954ZM263 445V467H272.5H282V464.05C282 461.16 281.883 461.094 276.25 460.8L270.5 460.5L270.199 454.114L269.898 447.728L274.449 448.241L279 448.754V445.377C279 442.041 278.945 442 274.5 442H270V436.05V430.1L275.75 429.8C280.948 429.529 281.532 429.271 281.837 427.113C282.319 423.708 280.573 423.033 271.25 423.015L263 423V445ZM288.15 425.527C282.037 430.671 283.12 438.773 290.961 446.55C296.962 452.501 298.647 455.923 297.049 458.909C294.872 462.977 291 461.022 291 455.855C291 454.222 290.429 453.928 287.75 454.187C285.064 454.446 284.446 454.966 284.19 457.184C283.708 461.358 286.476 465.672 290.486 466.995C299.973 470.126 307.785 461.425 304.116 451.815C303.63 450.542 300.68 446.642 297.56 443.15C292.836 437.86 291.939 436.273 292.194 433.65C292.448 431.038 292.927 430.5 295 430.5C296.997 430.5 297.565 431.065 297.822 433.308C298.109 435.807 298.494 436.082 301.322 435.808C304.176 435.531 304.478 435.195 304.281 432.5C303.645 423.798 294.766 419.96 288.15 425.527ZM314.304 423.765C313.646 424.197 311.737 432.865 310.062 443.026C308.387 453.187 306.799 462.738 306.533 464.25C306.084 466.804 306.292 467 309.437 467C312.609 467 312.867 466.746 313.5 463C314.15 459.153 314.321 459 317.981 459C322.005 459 323 460.107 323 464.582C323 466.679 323.465 467 326.5 467C330.579 467 330.501 467.498 328.38 455C327.493 449.775 326.032 440.55 325.134 434.5L323.5 423.5L319.5 423.239C317.3 423.096 314.962 423.332 314.304 423.765ZM333.667 423.667C333.3 424.033 333 433.933 333 445.667V467H336.472H339.944L340.222 453.25L340.5 439.5L343.393 451.5C347.047 466.659 347.227 467 351.555 467H355.039L354.77 445.25L354.5 423.5L351.75 423.184L349 422.867L348.931 435.684L348.863 448.5L347.017 442.5C346.002 439.2 344.391 433.462 343.437 429.75L341.703 423H338.018C335.992 423 334.033 423.3 333.667 423.667ZM364.525 424.25C364.157 425.365 361.516 442.122 358.901 459.928C358.223 464.548 358.276 466.553 359.09 467.055C361.146 468.326 364.013 466.803 364.594 464.131C365.651 459.277 365.916 459 369.5 459C373.1 459 373.342 459.257 374.436 464.25C374.929 466.5 375.58 467 378.019 467C380.717 467 380.999 466.691 380.995 463.75C380.992 461.962 379.65 452.4 378.014 442.5C376.377 432.6 375.029 424.163 375.019 423.75C374.985 422.425 364.97 422.902 364.525 424.25ZM385.621 423.804C385.036 424.751 384.612 465.952 385.181 466.506C385.357 466.677 389.325 466.962 394 467.14L402.5 467.463L402.803 464.367C403.074 461.599 402.771 461.204 399.928 460.636C398.18 460.286 395.691 460 394.398 460H392.045L391.773 441.75L391.5 423.5L388.844 423.193C387.384 423.024 385.933 423.299 385.621 423.804ZM31 445V460H34.5H38V445.607C38 430.301 37.902 430 32.918 430C31.113 430 31 430.88 31 445ZM56.466 431.228C56.177 431.981 56.067 438.875 56.22 446.548L56.5 460.5H59H61.5V445.5C61.5 430.697 61.47 430.496 59.246 430.18C58.006 430.004 56.755 430.475 56.466 431.228ZM127 436.5V443.133L129.75 442.816C132.409 442.51 132.5 442.302 132.5 436.5C132.5 430.698 132.409 430.49 129.75 430.184L127 429.867V436.5ZM223 436.566V443.133L225.75 442.816C228.276 442.526 228.525 442.106 228.808 437.672C229.14 432.464 227.878 430 224.878 430C223.231 430 223 430.809 223 436.566ZM164.568 441.216C164.184 445.222 163.626 449.512 163.327 450.75C162.851 452.717 163.174 453 165.892 453C167.712 453 169 452.482 169 451.75C169 449.989 166.037 434.704 165.614 434.281C165.422 434.089 164.951 437.21 164.568 441.216ZM199.616 440C199.225 443.025 198.643 447.188 198.324 449.25C197.765 452.869 197.848 453 200.701 453H203.658L202.79 446.25C202.312 442.538 201.563 438.375 201.125 437C200.452 434.886 200.218 435.35 199.616 440ZM316.556 441.216C316.166 444.672 315.6 448.738 315.299 450.25C314.794 452.78 315 453 317.875 453C319.594 453 320.999 452.887 320.999 452.75C320.992 451.472 317.949 435.616 317.654 435.321C317.441 435.107 316.947 437.76 316.556 441.216ZM369.058 436C368.966 436.275 368.332 440.212 367.649 444.75L366.407 453H369.203C371.224 453 371.983 452.514 371.939 451.25C371.86 449.003 369.278 435.338 369.058 436Z" fill="#e63c80"/>
</svg>
